<svg width="25" height="24" viewBox="0 0 25 24" fill="none" xmlns="http://www.w3.org/2000/svg">
<g clip-path="url(#clip0_19_4001)">
<path d="M19.625 0H5.125C3.608 0 2.375 1.233 2.375 2.75V21.25C2.375 22.767 3.608 24 5.125 24H19.625C21.142 24 22.375 22.767 22.375 21.25V2.75C22.375 1.233 21.142 0 19.625 0ZM10.155 18.72C10.448 19.013 10.448 19.488 10.155 19.781C10.009 19.927 9.817 20 9.625 20C9.433 20 9.241 19.927 9.095 19.78L8.375 19.061L7.655 19.781C7.509 19.927 7.317 20 7.125 20C6.933 20 6.741 19.927 6.595 19.78C6.302 19.487 6.302 19.012 6.595 18.719L7.314 18L6.594 17.28C6.301 16.987 6.301 16.512 6.594 16.219C6.887 15.926 7.362 15.926 7.655 16.219L8.375 16.939L9.095 16.219C9.388 15.926 9.863 15.926 10.156 16.219C10.449 16.512 10.449 16.987 10.156 17.28L9.436 18L10.155 18.72ZM9.625 12.75H9.125V13.25C9.125 13.664 8.789 14 8.375 14C7.961 14 7.625 13.664 7.625 13.25V12.75H7.125C6.711 12.75 6.375 12.414 6.375 12C6.375 11.586 6.711 11.25 7.125 11.25H7.625V10.75C7.625 10.336 7.961 10 8.375 10C8.789 10 9.125 10.336 9.125 10.75V11.25H9.625C10.039 11.25 10.375 11.586 10.375 12C10.375 12.414 10.039 12.75 9.625 12.75ZM17.625 20H15.125C14.711 20 14.375 19.664 14.375 19.25C14.375 18.836 14.711 18.5 15.125 18.5H17.625C18.039 18.5 18.375 18.836 18.375 19.25C18.375 19.664 18.039 20 17.625 20ZM17.625 17.5H15.125C14.711 17.5 14.375 17.164 14.375 16.75C14.375 16.336 14.711 16 15.125 16H17.625C18.039 16 18.375 16.336 18.375 16.75C18.375 17.164 18.039 17.5 17.625 17.5ZM17.625 13H15.125C14.711 13 14.375 12.664 14.375 12.25C14.375 11.836 14.711 11.5 15.125 11.5H17.625C18.039 11.5 18.375 11.836 18.375 12.25C18.375 12.664 18.039 13 17.625 13ZM19.375 6.25C19.375 7.215 18.59 8 17.625 8H7.125C6.16 8 5.375 7.215 5.375 6.25V4.75C5.375 3.785 6.16 3 7.125 3H17.625C18.59 3 19.375 3.785 19.375 4.75V6.25Z" fill="url(#paint0_linear_19_4001)"/>
</g>
<defs>
<linearGradient id="paint0_linear_19_4001" x1="2.375" y1="12" x2="22.375" y2="12" gradientUnits="userSpaceOnUse">
<stop stop-color="#D688F8"/>
<stop offset="1" stop-color="#1780F5"/>
</linearGradient>
<clipPath id="clip0_19_4001">
<rect width="24" height="24" fill="white" transform="translate(0.375)"/>
</clipPath>
</defs>
</svg>
