<svg width="25" height="24" viewBox="0 0 25 24" fill="none" xmlns="http://www.w3.org/2000/svg">
<g clip-path="url(#clip0_19_3987)">
<path d="M15.1911 11.8744C18.4648 11.8744 21.1278 9.21094 21.1278 5.93719C21.1278 2.66344 18.4648 0 15.1911 0C11.9173 0 9.25391 2.66344 9.25391 5.93719C9.25391 9.21094 11.9173 11.8744 15.1911 11.8744ZM14.488 2.44734V2.28609C14.488 1.8975 14.8025 1.58297 15.1911 1.58297C15.5792 1.58297 15.8942 1.8975 15.8942 2.28609V2.44828C16.7309 2.62781 17.3605 3.37313 17.3605 4.26281C17.3605 4.65094 17.0455 4.96594 16.6573 4.96594C16.2688 4.96594 15.9542 4.65094 15.9542 4.26281C15.9542 4.01484 15.7522 3.81281 15.5042 3.81281H14.8738C14.6258 3.81281 14.4238 4.01484 14.4238 4.26281C14.4238 4.40484 14.4917 4.53984 14.6061 4.62422L15.1911 5.05734L16.6123 6.10922C17.0792 6.45469 17.3605 7.00734 17.3642 7.58859V7.59516C17.3675 8.09109 17.1777 8.55891 16.8289 8.91187C16.5702 9.17391 16.2467 9.34969 15.8942 9.42375V9.58828C15.8942 9.97688 15.5792 10.2914 15.1911 10.2914C14.8025 10.2914 14.488 9.97688 14.488 9.58828V9.42609C14.1448 9.35297 13.8294 9.18422 13.5744 8.93203C13.2214 8.58375 13.0255 8.11875 13.0227 7.62281C13.0203 7.23469 13.333 6.91781 13.7211 6.91547H13.7258C14.112 6.91547 14.4266 7.22766 14.4289 7.61438C14.4298 7.85705 14.6251 8.06156 14.8813 8.06156C15.2698 8.05922 15.125 8.06006 15.5108 8.05781C15.7603 8.05584 15.9599 7.8533 15.958 7.60453V7.59797C15.957 7.45734 15.8891 7.32328 15.7756 7.23938L15.1911 6.80672L13.7694 5.75484C13.2988 5.40609 13.0175 4.84828 13.0175 4.26281C13.0175 3.37125 13.6489 2.62547 14.488 2.44734Z" fill="url(#paint0_linear_19_3987)"/>
<path d="M5.57125 15.253C5.39102 14.9405 4.99066 14.8318 4.67627 15.0132L1.36886 16.9224C1.05569 17.1037 0.948251 17.5042 1.12905 17.8178L4.50939 23.6726C4.69033 23.9857 5.09064 24.0932 5.40438 23.9124L8.71178 22.0027C9.02542 21.8219 9.13244 21.4213 8.95159 21.1077L5.57125 15.253Z" fill="url(#paint1_linear_19_3987)"/>
<path d="M24.5223 14.084C24.204 13.6419 23.5881 13.5421 23.1465 13.8604C21.8068 14.8255 19.2343 16.679 19.03 16.8266C18.9357 16.9068 18.8368 16.9794 18.7337 17.0437C18.3292 17.2982 17.86 17.4341 17.3701 17.4341H14.0021C13.614 17.4341 13.299 17.1196 13.299 16.731C13.299 16.3419 13.6145 16.0279 14.0021 16.0279H17.604C18.1332 16.0279 18.557 15.5872 18.535 15.0571C18.5143 14.5541 18.085 14.1641 17.5815 14.1641H14.8398C14.6542 13.9677 14.4507 13.7877 14.2328 13.6269C13.4832 13.0743 12.557 12.7476 11.5543 12.7476C9.77167 12.7476 7.99792 13.8707 7.26245 15.3697L10.1387 20.3512H15.534C16.5934 20.3512 17.6368 20.0802 18.5551 19.5519C18.8734 19.3691 19.2142 19.1493 19.5835 18.884C21.1314 17.7721 24.2959 15.4621 24.2982 15.4607C24.7407 15.1429 24.841 14.526 24.5223 14.084Z" fill="url(#paint2_linear_19_3987)"/>
</g>
<defs>
<linearGradient id="paint0_linear_19_3987" x1="9.25391" y1="5.93719" x2="21.1278" y2="5.93719" gradientUnits="userSpaceOnUse">
<stop stop-color="#D688F8"/>
<stop offset="1" stop-color="#1780F5"/>
</linearGradient>
<linearGradient id="paint1_linear_19_3987" x1="1.04126" y1="19.4627" x2="9.03951" y2="19.4627" gradientUnits="userSpaceOnUse">
<stop stop-color="#D688F8"/>
<stop offset="1" stop-color="#1780F5"/>
</linearGradient>
<linearGradient id="paint2_linear_19_3987" x1="7.26245" y1="16.5494" x2="24.7086" y2="16.5494" gradientUnits="userSpaceOnUse">
<stop stop-color="#D688F8"/>
<stop offset="1" stop-color="#1780F5"/>
</linearGradient>
<clipPath id="clip0_19_3987">
<rect width="24" height="24" fill="white" transform="translate(0.875)"/>
</clipPath>
</defs>
</svg>
