<svg width="25" height="24" viewBox="0 0 25 24" fill="none" xmlns="http://www.w3.org/2000/svg">
<path fill-rule="evenodd" clip-rule="evenodd" d="M21.819 17.0725C22.651 15.5685 23.125 13.8395 23.125 12C23.125 6.205 18.42 1.5 12.625 1.5C6.83 1.5 2.125 6.205 2.125 12C2.125 17.795 6.83 22.5 12.625 22.5C14.4675 22.5 16.2 22.0245 17.7065 21.189L17.5605 21.042C17.2815 20.761 17.125 20.381 17.125 19.9855V17.999C15.8715 18.941 14.313 19.5 12.625 19.5C8.4855 19.5 5.125 16.1395 5.125 12C5.125 7.8605 8.4855 4.5 12.625 4.5C16.7645 4.5 20.125 7.8605 20.125 12C20.125 13.6875 19.5665 15.246 18.624 16.5H20.625C21.023 16.5 21.4045 16.658 21.6855 16.9395L21.819 17.0725Z" fill="url(#paint0_linear_19_3993)"/>
<path fill-rule="evenodd" clip-rule="evenodd" d="M21.125 22C21.125 22.2025 21.003 22.385 20.8155 22.4625C20.628 22.5395 20.413 22.496 20.27 22.352L18.27 20.3375C18.177 20.244 18.125 20.117 18.125 19.9855V18C18.125 17.724 18.349 17.5 18.625 17.5H20.625C20.7575 17.5 20.885 17.5525 20.9785 17.6465L22.9785 19.6465C23.1215 19.7895 23.1645 20.0045 23.087 20.1915C23.0095 20.378 22.827 20.5 22.625 20.5H21.625C21.492 20.5 21.365 20.553 21.271 20.647C21.1775 20.741 21.1245 20.868 21.125 21.001V22Z" fill="url(#paint1_linear_19_3993)"/>
<path fill-rule="evenodd" clip-rule="evenodd" d="M17.5605 16.228C18.5355 15.0915 19.125 13.614 19.125 12C19.125 8.4125 16.2125 5.5 12.625 5.5C9.0375 5.5 6.125 8.4125 6.125 12C6.125 15.5875 9.0375 18.5 12.625 18.5C14.239 18.5 15.7165 17.9105 16.853 16.9355L14.7205 14.8025C14.136 15.2405 13.4105 15.5 12.625 15.5C10.6935 15.5 9.125 13.9315 9.125 12C9.125 10.0685 10.6935 8.5 12.625 8.5C14.5565 8.5 16.125 10.0685 16.125 12C16.125 12.7855 15.8655 13.511 15.4275 14.0955L17.5605 16.228Z" fill="url(#paint2_linear_19_3993)"/>
<path fill-rule="evenodd" clip-rule="evenodd" d="M14.7105 13.3785C14.9725 12.983 15.125 12.5095 15.125 12C15.125 10.62 14.005 9.5 12.625 9.5C11.245 9.5 10.125 10.62 10.125 12C10.125 13.38 11.245 14.5 12.625 14.5C13.1345 14.5 13.608 14.3475 14.0035 14.0855L12.2715 12.3535C12.0765 12.1585 12.0765 11.8415 12.2715 11.6465C12.4665 11.4515 12.7835 11.4515 12.9785 11.6465L14.7105 13.3785Z" fill="url(#paint3_linear_19_3993)"/>
<defs>
<linearGradient id="paint0_linear_19_3993" x1="2.125" y1="12" x2="23.125" y2="12" gradientUnits="userSpaceOnUse">
<stop stop-color="#D688F8"/>
<stop offset="1" stop-color="#1780F5"/>
</linearGradient>
<linearGradient id="paint1_linear_19_3993" x1="18.125" y1="20" x2="23.1251" y2="20" gradientUnits="userSpaceOnUse">
<stop stop-color="#D688F8"/>
<stop offset="1" stop-color="#1780F5"/>
</linearGradient>
<linearGradient id="paint2_linear_19_3993" x1="6.125" y1="12" x2="19.125" y2="12" gradientUnits="userSpaceOnUse">
<stop stop-color="#D688F8"/>
<stop offset="1" stop-color="#1780F5"/>
</linearGradient>
<linearGradient id="paint3_linear_19_3993" x1="10.125" y1="12" x2="15.125" y2="12" gradientUnits="userSpaceOnUse">
<stop stop-color="#D688F8"/>
<stop offset="1" stop-color="#1780F5"/>
</linearGradient>
</defs>
</svg>
